# xmcd CD database file
#
# Track frame offsets:
#	150
#	22622
#	33145
#	52667
#	67460
#	78942
#	92507
#	104952
#	131240
#	148947
#	159285
#	187972
#	205270
#	231360
#	244037
#
# Disc length: 3575 seconds
#
# Revision: 0
# Processed by: cddbd v1.4PL0 Copyright (c) Steve Scherf et al.
# Submitted via: CDex 1.50
#
DISCID=c80df50f
DTITLE=Various Artist - Legends of New Orleans
DYEAR=2001
DGENRE=Jazz
TTITLE0=(The Dirty Dozen Brass Band with Dr John) It's All Over Now
TTITLE1=(Fats Domino) Blue Monday
TTITLE2=(Irma Thomas, Marcia Ball and Tracy Nelson) Sing It
TTITLE3=(The Neville Brothers) Amazing Grace (live)
TTITLE4=(Buckwheat Zydeco) On a Night Like This
TTITLE5=(Louis Armstrong) Do You Know What It's Like to Miss New Orleans
TTITLE6=(Filé) One Foot in the Bayou
TTITLE7=(Pete Fountain) High Society
TTITLE8=(The Subdudes) Satisfied
TTITLE9=(Al Hirt) New Orleans, My Hometown
TTITLE10=(Sonny Landreth) Congo Square
TTITLE11=(Katie Webster) Black Satin
TTITLE12=(Preservation Hall Jazz Band) St Louis Blues
TTITLE13=(Professor Longhair) Go to the Mardi Gras
TTITLE14=(Raymond Myles) Heaven is the Place I Want to Be
EXTD=YEAR: 2001
EXTT0=
EXTT1=
EXTT2=
EXTT3=
EXTT4=
EXTT5=
EXTT6=
EXTT7=
EXTT8=
EXTT9=
EXTT10=
EXTT11=
EXTT12=
EXTT13=
EXTT14=
PLAYORDER=
